<?xml version="1.0" encoding="utf-8"?>
<!-- Generator: Adobe Illustrator 19.1.0, SVG Export Plug-In . SVG Version: 6.00 Build 0)  -->
<svg version="1.1" id="Layer_1" xmlns="http://www.w3.org/2000/svg" xmlns:xlink="http://www.w3.org/1999/xlink" x="0px" y="0px"
	 viewBox="-187 141.6 288 114.4" style="enable-background:new -187 141.6 288 114.4;" xml:space="preserve">
<style type="text/css">
	.st0{fill:#4F3DD1;}
</style>
<path class="st0" d="M-117.3,173.8c-4.2-2.8-9.6-3.2-14.2-1.1l-16.8,7.4l-17.9-7.7c-7.6-3.2-16.4,0.3-19.7,7.9
	c-0.8,1.8-1.2,3.8-1.2,5.8v29.2c0,8.7,3.7,17,10.1,22.9l0.9,0.8c2.5,2.3,5.1,4.3,8,6l17.6,10.5c1.1,0.6,2.4,0.6,3.4,0l17.6-10.5
	c2.9-1.7,5.5-3.7,8-6l0.9-0.8l0,0c6.4-5.9,10.1-14.2,10.1-22.9v-29C-110.4,181.3-113,176.6-117.3,173.8z M-150.6,188.4l2.3-1
	l0.9,0.4c5,2.2,7.3,7.9,5.1,12.9c-0.3,0.7-0.7,1.4-1.2,2.1c-1.3,1.7-3.2,2.6-5.3,2.7l0,0c-2.1,0-4-0.9-5.3-2.6
	c-3.2-4.1-2.5-10,1.6-13.2C-151.9,189.1-151.2,188.7-150.6,188.4L-150.6,188.4z M-176.6,179.2c1.3-0.9,2.9-1.4,4.5-1.4
	c1.1,0,2.3,0.2,3.3,0.7l12.6,5.4c-7.2,5.2-8.8,15.3-3.6,22.5c0.1,0.2,0.3,0.4,0.4,0.5c2.5,3.2,6.4,5.1,10.6,5.1h0.1
	c4.1,0,8.1-2,10.6-5.3c5.4-7,4.3-17.1-2.6-22.7l12-5.3c4.2-1.9,9.1,0.1,11,4.3c0.5,1.1,0.7,2.2,0.7,3.3v29c0,1.2-0.1,2.5-0.3,3.7
	c-18,4.1-32.9,2.7-44.3-4.4c-14-8.7-18.2-23.4-18.8-25.6v-2.9C-180.4,183.4-179,180.7-176.6,179.2L-176.6,179.2z M-148.7,248.8
	l-15.9-9.5c-2.5-1.5-4.8-3.2-6.9-5.2l-0.9-0.8c-1.7-1.6-3.2-3.4-4.4-5.4c1.8,1.5,3.6,2.9,5.6,4.1c9.5,6,20.5,9.2,31.7,9
	c1.2,0,2.5,0,3.7-0.1L-148.7,248.8z M-124.4,232.8c-16.5,3.7-30.9,1.6-42.9-6c-5.1-3.2-9.5-7.4-13-12.4v-9.2c3.8,6.1,9,11.2,15.1,15
	c8.3,5.2,18,7.8,29.2,7.8c5.5,0,11-0.6,16.4-1.7C-120.9,228.7-122.5,230.9-124.4,232.8L-124.4,232.8z"/>
<path class="st0" d="M-148.7,171.8c8.4,0,15.1-6.8,15.1-15.1c0-8.4-6.8-15.1-15.1-15.1s-15.1,6.8-15.1,15.1l0,0
	C-163.9,165-157.1,171.8-148.7,171.8z M-148.7,148.2c4.7,0,8.5,3.8,8.5,8.5c0,4.7-3.8,8.5-8.5,8.5c-4.7,0-8.5-3.8-8.5-8.5
	c0,0,0,0,0,0C-157.2,152-153.4,148.2-148.7,148.2z"/>
<g>
	<g>
		<path class="st0" d="M-81.2,215.4h3.6c1.5,0,2.7,1.2,2.7,2.7v1.6h0.1c1-2.9,3.8-4.9,6.9-4.8c3.1-0.2,6,1.8,6.7,4.9h0.1
			c1.7-4,6.4-6,10.4-4.3c3,1.2,4.9,4.2,4.9,7.4v16.3h-6.5v-14.7c0-2.8-1.4-4.3-3.9-4.3c-2.2,0-4.1,1.7-4.1,4c0,0.2,0,0.3,0,0.5v14.5
			h-6.3v-14.9c0.3-2-1.2-3.8-3.2-4.1c-0.2,0-0.5,0-0.7,0c-2.3,0-4.2,1.8-4.2,4.1c0,0.1,0,0.3,0,0.4v14.4h-6.6V215.4z"/>
		<path class="st0" d="M-37.8,248.2c-1.4,0-2.5-1-2.5-2.4v-2.7c0.2,0,1.4,0,1.7,0c2.4,0,3.6-0.8,4-2.7c0.1-0.4,0.2-0.8,0.2-1.1
			l-8.3-24h7.2l5.2,18.7h0.1l5.2-18.7h6.9l-8.2,24.5c-2.1,6.1-5.1,8.3-11.2,8.3L-37.8,248.2z"/>
		<path class="st0" d="M3,213.8v1.7h4.4v4.9H3v11.5c0,1.8,0.9,2.7,2.8,2.7c0.5,0,1.1,0,1.6-0.1v4.8c-1,0.2-2.1,0.3-3.1,0.3
			c-5.6,0-7.8-1.9-7.8-6.6v-12.6H-7v-5h3.4v-5.5h2.6C1.3,209.9,3,211.6,3,213.8z"/>
		<path class="st0" d="M33.4,232.1c-0.7,4.7-5,7.8-10.9,7.8c-7.4,0-11.8-4.7-11.8-12.4s4.5-12.7,11.5-12.7s11.4,4.7,11.4,12v2H17.1
			v0.4c-0.2,2.9,1.9,5.5,4.8,5.7c0.2,0,0.4,0,0.6,0c1.1,0,2.2-0.3,3.1-0.8c2-1.3,4.3-2.1,6.8-2.2H33.4z M17.3,224.9h10.2
			c0.1-2.7-2-5.1-4.8-5.2c-0.1,0-0.2,0-0.2,0C19.6,219.7,17.3,222,17.3,224.9z"/>
		<path class="st0" d="M37,232.5c0-4.4,3.4-6.9,9.3-7.2l6-0.3v-1.6c0-2.2-1.6-3.4-4-3.4c-2-0.3-3.8,1-4.3,3h-6
			c0.2-4.6,4.2-7.8,10.5-7.8s10.1,3.2,10.1,8v10.2c0,3.5-2.8,6.3-6.3,6.3c0,0,0,0,0,0l0,0v-3.7h-0.1c-1.5,2.6-4.3,4.1-7.3,4
			C40.4,239.7,37,236.8,37,232.5z M52.3,230.6v-1.7l-5,0.3c-2.4,0.2-3.8,1.3-3.8,3c0,1.7,1.5,2.9,3.7,2.9c2.6,0.2,4.9-1.7,5.2-4.4
			C52.3,230.7,52.3,230.6,52.3,230.6z"/>
		<path class="st0" d="M63.8,215.4h2c2.4,0,4.3,1.9,4.3,4.3c0,0,0,0,0,0h0.1c1-2.9,3.8-4.9,6.9-4.8c3.1-0.2,6,1.8,6.7,4.9H84
			c1.7-4,6.3-6,10.4-4.3c3,1.2,4.9,4.2,4.9,7.4v16.3h-6.5v-14.7c0-2.8-1.4-4.3-3.9-4.3c-2.2,0-4.1,1.8-4.1,4c0,0.2,0,0.3,0,0.5v14.5
			h-6.3v-14.9c0.3-2-1.2-3.8-3.2-4.1c-0.2,0-0.5,0-0.7,0c-2.3,0-4.2,1.8-4.2,4.1c0,0.1,0,0.3,0,0.4v14.4h-6.5L63.8,215.4z"/>
	</g>
	<g>
		<path class="st0" d="M-80.2,197.5v-26.2c0-3,2.4-5.4,5.4-5.4l0,0c3,0,5.4,2.4,5.4,5.4v15.5C-69.4,192.7-74.2,197.5-80.2,197.5
			L-80.2,197.5z"/>
		<path class="st0" d="M-62.5,165.5h4c3.3,0,6,2.7,6,6h0.2c1.4-4.2,5.5-6.9,9.9-6.6c7.1,0,11.1,4.5,11.1,12v10.1
			c0,5.7-4.6,10.3-10.3,10.3l0,0v-18.3c0-3.6-1.7-5.8-5.2-5.8c-3.4,0-5.4,2.5-5.4,6v18.1h-5.2c-2.9,0-5.2-2.3-5.2-5.2L-62.5,165.5z"
			/>
		<path class="st0" d="M-11.5,164.8c8.8,0,14.1,4.3,14.2,10.8h-9.5c-0.2-2.3-2.3-4-4.7-3.8c0,0,0,0-0.1,0c-2.5,0-4.2,1.1-4.2,2.8
			c0,1.4,0.9,2.3,4,2.9l5.6,1.1c6.9,1.3,9.7,4,9.7,8.7c0,6.6-6,10.9-14.7,10.9c-9.5,0-14.8-4.3-15.3-10.7h1.2
			c3.9,0.1,7.7,1.2,11.1,3.1c0.9,0.4,2,0.7,3,0.6c2.8,0,4.5-1,4.5-2.7c0-1.7-1-2.2-3.9-2.8l-5.6-1.1c-6.3-1.2-9.5-4.5-9.5-9.4
			C-25.7,168.8-20.2,164.8-11.5,164.8z"/>
		<path class="st0" d="M34.6,197.5L34.6,197.5c-2.8,0-5-2.2-5-5v-1h-0.3c-1.2,4.1-5,6.9-9.3,6.7c-6.9,0-11.7-4.5-11.7-12v-20.6l0,0
			c5.7,0,10.3,4.6,10.3,10.3c0,0,0,0.1,0,0.1v8c0,3.8,2,5.8,5.2,5.8s5.5-2.5,5.5-6.1v-12.9c0-2.9,2.3-5.2,5.2-5.2l0,0
			c2.9,0,5.2,2.3,5.2,5.2v21.8C39.6,195.2,37.4,197.4,34.6,197.5z"/>
		<path class="st0" d="M45.9,165.5H50c3.3,0,6,2.7,6,6h0.2c1.2-4.3,3.8-6.5,7.5-6.5l0,0c1.5,0,2.6,1.2,2.6,2.6c0,0,0,0,0,0v2.9
			c0,1.8-1.5,3.2-3.2,3.2c0,0,0,0-0.1,0l0,0c-4.4,0-6.7,2.5-6.7,6.9v11.6c0,2.9-2.3,5.2-5.2,5.2l0,0c-2.9,0-5.2-2.3-5.2-5.2
			L45.9,165.5z"/>
		<path class="st0" d="M100.4,187.3c-1,6.6-6.9,10.8-15.2,10.8c-10.2,0-16.2-6.2-16.2-16.6s6.1-16.9,15.9-16.9s15.7,6.3,15.7,16.1
			v2.9H79v0.7c-0.2,3.3,2.3,6.2,5.7,6.4c0.2,0,0.4,0,0.6,0c1.2,0,2.3-0.2,3.4-0.8c3.3-1.8,7.1-2.7,10.9-2.7H100.4z M79.2,177.8h11.6
			c0-3.1-2.4-5.7-5.6-5.7c-0.1,0-0.2,0-0.2,0C81.9,172.1,79.3,174.7,79.2,177.8z"/>
		<path class="st0" d="M-74.8,151.3L-74.8,151.3c3,0,5.4,2.4,5.4,5.4l0,0c0,3-2.4,5.4-5.4,5.4l0,0c-3,0-5.4-2.4-5.4-5.4l0,0
			C-80.2,153.7-77.8,151.3-74.8,151.3z"/>
	</g>
</g>
</svg>
